<svg width="128" height="34" viewBox="0 0 128 34" fill="none" xmlns="http://www.w3.org/2000/svg">
<path d="M20.3688 16.6202C20.3931 14.1811 21.5853 11.9377 23.5195 10.6594C22.9136 9.73272 22.114 8.97066 21.1847 8.43396C20.2554 7.89725 19.222 7.60076 18.1669 7.56811C15.9285 7.30724 13.7509 9.00289 12.6074 9.00289C11.4396 9.00289 9.67561 7.5942 7.77785 7.63333C6.55006 7.67623 5.35353 8.05916 4.30469 8.74487C3.25585 9.43058 2.39041 10.3957 1.79259 11.5464C-0.798583 16.3594 1.13568 23.4159 3.61737 27.3028C4.85821 29.1941 6.2937 31.3202 8.20363 31.2419C10.0527 31.1637 10.7583 29.9767 12.9845 29.9767C15.2108 29.9767 15.8555 31.2419 17.7898 31.2028C19.7848 31.1637 21.0379 29.2854 22.2422 27.368C23.1303 26.0115 23.8237 24.5115 24.2738 22.9333C23.1167 22.4082 22.1294 21.5296 21.435 20.407C20.7406 19.2843 20.3697 17.9674 20.3688 16.6202ZM16.7071 5.0116C17.7948 3.6145 18.3316 1.81767 18.2034 0.00292969C16.5368 0.198581 15.0039 1.0464 13.9091 2.38987C13.3702 3.04672 12.9574 3.81109 12.6944 4.63921C12.4313 5.46734 12.3232 6.34296 12.3763 7.21594C13.2068 7.22485 14.0284 7.031 14.7787 6.64909C15.529 6.26718 16.1885 5.70722 16.7071 5.0116Z" fill="white"/>
<path d="M45.8552 25.2419H40.1011L38.7143 29.6245H36.2812L41.7312 13.4245H44.2738L49.7237 29.6245H47.242L45.8552 25.2419ZM40.6972 23.2202H45.2591L43.0086 16.1115H42.9478L40.6972 23.2202ZM61.4996 23.7158C61.4996 27.381 59.6748 29.7419 56.9012 29.7419C56.2011 29.7819 55.5047 29.6098 54.8916 29.2454C54.2784 28.8809 53.7734 28.3388 53.4341 27.681H53.3855V33.5245H51.1227V17.8071H53.3125V19.7636H53.349C53.7035 19.1068 54.218 18.5657 54.8372 18.1981C55.4565 17.8305 56.1573 17.6503 56.8647 17.6767C59.6627 17.6767 61.4996 20.0506 61.4996 23.7158ZM59.1761 23.7158C59.1761 21.3289 58.0204 19.7506 56.2564 19.7506C54.5411 19.7506 53.3733 21.3549 53.3733 23.7158C53.3733 26.0897 54.5411 27.694 56.2686 27.694C58.0204 27.694 59.1761 26.1288 59.1761 23.7158ZM73.6161 23.7158C73.6161 27.381 71.7913 29.7419 69.0298 29.7419C68.3298 29.7819 67.6334 29.6098 67.0202 29.2454C66.4071 28.8809 65.902 28.3388 65.5628 27.681H65.5019V33.5245H63.2514V17.8071H65.4411V19.7636H65.4776C65.8312 19.1088 66.3437 18.569 66.9606 18.2015C67.5775 17.834 68.2758 17.6527 68.9812 17.6767C71.7791 17.6767 73.6161 20.0506 73.6161 23.7158ZM71.3047 23.7158C71.3047 21.3289 70.149 19.7506 68.3851 19.7506C66.6576 19.7506 65.5019 21.3549 65.5019 23.7158C65.5019 26.0897 66.6576 27.694 68.3851 27.694C70.149 27.694 71.3047 26.1288 71.3047 23.7158ZM81.6329 25.1114C81.8032 26.7158 83.2509 27.7723 85.246 27.7723C87.1559 27.7723 88.5306 26.7158 88.5306 25.268C88.5306 24.0028 87.6912 23.2593 85.7326 22.7375L83.7862 22.2289C81.0003 21.5115 79.723 20.1289 79.723 17.8724C79.723 15.068 81.9857 13.1506 85.2095 13.1506C88.4089 13.1506 90.5986 15.068 90.6716 17.8724H88.3846C88.2508 16.255 86.9977 15.2637 85.1851 15.2637C83.3604 15.2637 82.1195 16.255 82.1195 17.7028C82.1195 18.8376 82.9103 19.5289 84.8567 20.0376L86.5233 20.468C89.6254 21.2506 90.9028 22.5941 90.9028 24.9549C90.9028 27.994 88.6522 29.8853 85.0757 29.8853C81.7302 29.8853 79.4675 28.0332 79.3215 25.1114H81.6329ZM95.7932 15.0158V17.8071H97.8856V19.7245H95.7932V26.2462C95.7932 27.2506 96.2068 27.7201 97.1313 27.7201C97.3746 27.7201 97.6179 27.694 97.8612 27.668V29.5723C97.4598 29.6636 97.034 29.7027 96.6204 29.6897C94.382 29.6897 93.5183 28.7766 93.5183 26.4941V19.7245H91.9125V17.8071H93.5183V15.0158H95.7932ZM99.0899 23.7158C99.0899 19.9984 101.134 17.6637 104.321 17.6637C107.508 17.6637 109.552 20.0115 109.552 23.7158C109.552 27.4462 107.52 29.7679 104.321 29.7679C101.121 29.7679 99.0899 27.4462 99.0899 23.7158ZM107.241 23.7158C107.241 21.1723 106.146 19.6723 104.321 19.6723C102.496 19.6723 101.401 21.1723 101.401 23.7158C101.401 26.2723 102.496 27.7593 104.321 27.7593C106.146 27.7593 107.241 26.2723 107.241 23.7158ZM111.413 17.8071H113.566V19.8158H113.615C113.919 18.5245 115.026 17.6376 116.267 17.6897C116.523 17.6897 116.79 17.7158 117.046 17.781V20.0506C116.715 19.9388 116.37 19.8859 116.024 19.8941C115.694 19.8783 115.365 19.9397 115.06 20.0739C114.754 20.2082 114.48 20.412 114.255 20.6714C114.031 20.9308 113.862 21.2394 113.759 21.5759C113.657 21.9125 113.625 22.2688 113.664 22.6202V29.6245H111.413V17.8071ZM127.459 26.1549C127.155 28.294 125.208 29.7679 122.715 29.7679C119.515 29.7679 117.532 27.4593 117.532 23.768C117.532 20.0636 119.527 17.6637 122.629 17.6637C125.671 17.6637 127.593 19.9071 127.593 23.4941V24.3158H119.807V24.4723C119.772 24.9069 119.824 25.3444 119.959 25.7559C120.094 26.1674 120.309 26.5434 120.589 26.8592C120.87 27.1749 121.21 27.423 121.587 27.5872C121.964 27.7514 122.369 27.8278 122.775 27.8114C123.87 27.9158 124.904 27.2506 125.318 26.1549H127.459ZM119.819 22.6332H125.33C125.35 22.2424 125.295 21.8513 125.168 21.4845C125.04 21.1177 124.844 20.783 124.59 20.5014C124.337 20.2198 124.032 19.9973 123.694 19.8479C123.357 19.6985 122.994 19.6254 122.629 19.6332C121.887 19.6332 121.176 19.9493 120.651 20.5119C120.126 21.0745 119.831 21.8376 119.831 22.6332H119.819Z" fill="white"/>
<path d="M40.4167 1.22885C40.8905 1.19384 41.3657 1.27193 41.8079 1.45751C42.2502 1.64308 42.6486 1.93151 42.9744 2.30203C43.3002 2.67254 43.5453 3.11592 43.692 3.60022C43.8387 4.08451 43.8835 4.59768 43.823 5.10274C43.823 7.58099 42.57 9.01577 40.4167 9.01577H37.7891V1.22885H40.4167ZM38.9204 7.90708H40.2829C40.6209 7.92803 40.959 7.86827 41.2728 7.73213C41.5866 7.59598 41.8683 7.38684 42.0976 7.1198C42.3268 6.85276 42.498 6.53448 42.5986 6.18792C42.6992 5.84136 42.7268 5.47518 42.6795 5.11578C42.7268 4.75639 42.6992 4.39021 42.5986 4.04365C42.498 3.69709 42.3268 3.37881 42.0976 3.11177C41.8683 2.84473 41.5866 2.63559 41.2728 2.49944C40.959 2.3633 40.6209 2.30354 40.2829 2.32449H38.9204V7.90708ZM45.1003 6.06795C45.076 5.68798 45.1248 5.30669 45.2437 4.94779C45.3626 4.58889 45.549 4.26003 45.7915 3.98164C46.0339 3.70326 46.3271 3.48129 46.6529 3.32953C46.9788 3.17777 47.3302 3.09946 47.6854 3.09946C48.0406 3.09946 48.3921 3.17777 48.7179 3.32953C49.0437 3.48129 49.3369 3.70326 49.5793 3.98164C49.8218 4.26003 50.0082 4.58889 50.1271 4.94779C50.246 5.30669 50.2948 5.68798 50.2705 6.06795C50.2948 6.44793 50.246 6.82922 50.1271 7.18812C50.0082 7.54702 49.8218 7.87588 49.5793 8.15427C49.3369 8.43265 49.0437 8.65462 48.7179 8.80638C48.3921 8.95814 48.0406 9.03645 47.6854 9.03645C47.3302 9.03645 46.9788 8.95814 46.6529 8.80638C46.3271 8.65462 46.0339 8.43265 45.7915 8.15427C45.549 7.87588 45.3626 7.54702 45.2437 7.18812C45.1248 6.82922 45.076 6.44793 45.1003 6.06795ZM49.1513 6.06795C49.1513 4.80274 48.6282 4.05927 47.6915 4.05927C46.7426 4.05927 46.2195 4.80274 46.2195 6.06795C46.2195 7.35925 46.7426 8.08968 47.6793 8.08968C48.6282 8.08968 49.1513 7.34621 49.1513 6.06795ZM57.1316 9.01577H56.0125L54.8811 4.68535H54.7959L53.6646 9.01577H52.5697L51.0491 3.14623H52.1439L53.1171 7.62012H53.2023L54.3337 3.13318H55.3677L56.4991 7.62012H56.5842L57.5574 3.13318H58.6401L57.1316 9.01577ZM59.9053 3.14623H60.9515V4.07231H61.0367C61.3165 3.38101 61.9734 2.96362 62.6668 3.02884C62.9332 3.0061 63.2009 3.0481 63.45 3.15171C63.6991 3.25531 63.9232 3.41785 64.1056 3.62721C64.2881 3.83658 64.4241 4.08737 64.5035 4.36092C64.583 4.63446 64.6038 4.9237 64.5646 5.20709V9.01577H63.4697V5.49404C63.4697 4.55492 63.1047 4.08535 62.3018 4.08535C62.1204 4.07475 61.9389 4.1066 61.7701 4.17869C61.6012 4.25079 61.449 4.36141 61.324 4.50287C61.199 4.64433 61.1042 4.81326 61.0462 4.99792C60.9882 5.18259 60.9683 5.37858 60.988 5.5723V9.01577H59.9053V3.14623ZM66.292 0.850586H67.3625V9.01577H66.2798L66.292 0.850586ZM68.871 6.06795C68.8467 5.68798 68.8955 5.30669 69.0144 4.94779C69.1333 4.58889 69.3197 4.26003 69.5622 3.98164C69.8046 3.70326 70.0978 3.48129 70.4236 3.32953C70.7495 3.17777 71.1009 3.09946 71.4561 3.09946C71.8113 3.09946 72.1628 3.17777 72.4886 3.32953C72.8144 3.48129 73.1076 3.70326 73.35 3.98164C73.5925 4.26003 73.7789 4.58889 73.8978 4.94779C74.0167 5.30669 74.0655 5.68798 74.0412 6.06795C74.0655 6.44793 74.0167 6.82922 73.8978 7.18812C73.7789 7.54702 73.5925 7.87588 73.35 8.15427C73.1076 8.43265 72.8144 8.65462 72.4886 8.80638C72.1628 8.95814 71.8113 9.03645 71.4561 9.03645C71.1009 9.03645 70.7495 8.95814 70.4236 8.80638C70.0978 8.65462 69.8046 8.43265 69.5622 8.15427C69.3197 7.87588 69.1333 7.54702 69.0144 7.18812C68.8955 6.82922 68.8467 6.44793 68.871 6.06795ZM72.922 6.06795C72.922 4.80274 72.3867 4.05927 71.4622 4.05927C70.5133 4.05927 69.9902 4.80274 69.9902 6.06795C69.9902 7.35925 70.5133 8.08968 71.45 8.08968C72.3867 8.08968 72.922 7.34621 72.922 6.06795ZM75.1726 7.34621C75.1726 6.30274 75.9025 5.68969 77.2163 5.59839L78.7005 5.50709V4.99839C78.7005 4.38535 78.3112 4.03318 77.5691 4.03318C76.9608 4.03318 76.5472 4.26796 76.4377 4.68535H75.3794C75.501 3.66797 76.3769 3.02884 77.6178 3.02884C78.9924 3.02884 79.771 3.75927 79.771 4.99839V9.01577H78.7248V8.18099H78.6396C78.2868 8.79403 77.6664 9.1462 76.9973 9.10707C76.7672 9.13261 76.5347 9.10611 76.3147 9.0293C76.0947 8.95249 75.8922 8.82706 75.7202 8.66112C75.5483 8.49519 75.4107 8.29243 75.3164 8.06594C75.222 7.83944 75.173 7.59426 75.1726 7.34621ZM78.7005 6.85056V6.35491L77.3623 6.44621C76.608 6.49839 76.2674 6.78534 76.2674 7.29404C76.2674 7.81577 76.6932 8.12882 77.2771 8.12882C77.4495 8.14855 77.6237 8.13084 77.7895 8.07674C77.9553 8.02264 78.1092 7.93326 78.2421 7.81395C78.375 7.69463 78.484 7.54782 78.5628 7.3823C78.6415 7.21677 78.6884 7.03592 78.7005 6.85056ZM81.1943 6.06795C81.1943 4.21579 82.0824 3.04188 83.4692 3.04188C84.1626 3.00275 84.8195 3.4071 85.148 4.07231H85.221V0.850586H86.3158V9.01577H85.2696V8.08968H85.1845C84.8317 8.74185 84.1748 9.13316 83.4692 9.10707C82.0702 9.10707 81.1943 7.93316 81.1943 6.06795ZM82.3135 6.06795C82.3135 7.32012 82.8609 8.0636 83.7733 8.0636C84.6857 8.0636 85.2453 7.30708 85.2453 6.081C85.2453 4.85492 84.6735 4.08535 83.7733 4.08535C82.8609 4.08535 82.3135 4.84187 82.3135 6.06795ZM90.7804 6.06795C90.7561 5.68798 90.8049 5.30669 90.9238 4.94779C91.0427 4.58889 91.2292 4.26003 91.4716 3.98164C91.714 3.70326 92.0073 3.48129 92.3331 3.32953C92.6589 3.17777 93.0103 3.09946 93.3655 3.09946C93.7208 3.09946 94.0722 3.17777 94.398 3.32953C94.7238 3.48129 95.017 3.70326 95.2595 3.98164C95.5019 4.26003 95.6884 4.58889 95.8073 4.94779C95.9262 5.30669 95.975 5.68798 95.9506 6.06795C95.975 6.44793 95.9262 6.82922 95.8073 7.18812C95.6884 7.54702 95.5019 7.87588 95.2595 8.15427C95.017 8.43265 94.7238 8.65462 94.398 8.80638C94.0722 8.95814 93.7208 9.03645 93.3655 9.03645C93.0103 9.03645 92.6589 8.95814 92.3331 8.80638C92.0073 8.65462 91.714 8.43265 91.4716 8.15427C91.2292 7.87588 91.0427 7.54702 90.9238 7.18812C90.8049 6.82922 90.7561 6.44793 90.7804 6.06795ZM94.8314 6.06795C94.8314 4.80274 94.2962 4.05927 93.3716 4.05927C92.4227 4.05927 91.8996 4.80274 91.8996 6.06795C91.8996 7.35925 92.4227 8.08968 93.3594 8.08968C94.2962 8.08968 94.8314 7.34621 94.8314 6.06795ZM97.3983 3.14623H98.4323V4.07231H98.5175C98.7973 3.38101 99.4542 2.96362 100.16 3.02884C100.425 3.00817 100.691 3.05171 100.939 3.15623C101.187 3.26075 101.409 3.42358 101.59 3.63269C101.771 3.8418 101.906 4.09184 101.985 4.36435C102.064 4.63686 102.084 4.92487 102.045 5.20709V9.01577H100.975V5.49404C100.975 4.55492 100.586 4.08535 99.7826 4.08535C99.6022 4.0767 99.4221 4.11 99.2547 4.18296C99.0874 4.25592 98.9367 4.36682 98.8131 4.50806C98.6894 4.6493 98.5957 4.81753 98.5384 5.00122C98.4811 5.18492 98.4615 5.37973 98.481 5.5723V9.01577H97.3861V3.14623H97.3983ZM108.164 1.67232V3.17232H109.344V4.13753H108.164V7.1636C108.164 7.77664 108.396 8.05055 108.931 8.05055L109.344 8.02447V8.98968C109.15 9.02881 108.955 9.04185 108.761 9.04185C107.544 9.04185 107.082 8.58533 107.082 7.4636V4.13753H106.206V3.17232H107.082V1.67232H108.164ZM110.816 0.850586H111.899V4.08535H111.984C112.276 3.39405 112.945 2.96362 113.651 3.04188C113.915 3.02605 114.179 3.07289 114.425 3.17904C114.67 3.2852 114.891 3.44808 115.071 3.65607C115.251 3.86406 115.386 4.11205 115.467 4.38239C115.547 4.65273 115.571 4.93877 115.537 5.22013V9.00272H114.454V5.50709C114.454 4.56796 114.04 4.0984 113.286 4.0984C113.1 4.0804 112.912 4.1065 112.736 4.17486C112.56 4.24322 112.4 4.35217 112.268 4.494C112.136 4.63584 112.034 4.80711 111.97 4.99569C111.907 5.18427 111.882 5.38557 111.899 5.58535V9.01577H110.816V0.850586ZM121.838 7.42447C121.69 7.96004 121.372 8.42303 120.938 8.73286C120.505 9.04269 119.984 9.17972 119.466 9.12012C119.106 9.12915 118.748 9.05442 118.417 8.90109C118.087 8.74776 117.791 8.51946 117.551 8.23189C117.31 7.94433 117.131 7.60432 117.025 7.23527C116.918 6.86622 116.888 6.47688 116.936 6.09404C116.889 5.70936 116.919 5.31835 117.025 4.94739C117.131 4.57643 117.31 4.23414 117.55 3.94363C117.789 3.65312 118.085 3.42113 118.415 3.26332C118.746 3.10551 119.104 3.02555 119.466 3.02884C120.986 3.02884 121.899 4.13753 121.899 5.98969V6.381H118.043V6.45926C118.026 6.67489 118.051 6.89194 118.117 7.09649C118.183 7.30103 118.288 7.48854 118.425 7.64699C118.563 7.80543 118.729 7.93131 118.915 8.01653C119.1 8.10175 119.301 8.14444 119.502 8.14186C120.025 8.20708 120.536 7.92012 120.804 7.42447H121.838ZM118.043 5.53317H120.804C120.818 5.33678 120.793 5.13952 120.731 4.9539C120.67 4.76828 120.573 4.59835 120.448 4.45487C120.322 4.3114 120.17 4.19751 120.001 4.12043C119.832 4.04335 119.65 4.00475 119.466 4.00709C119.278 4.00356 119.091 4.04062 118.917 4.11606C118.743 4.1915 118.585 4.30378 118.452 4.4462C118.319 4.58862 118.215 4.75826 118.144 4.94501C118.074 5.13176 118.039 5.33179 118.043 5.53317Z" fill="white"/>
</svg>
