<svg width="120" height="36" viewBox="0 0 120 40" fill="none" xmlns="http://www.w3.org/2000/svg">
<path d="M21.3276 28.3102C24.6501 26.4857 27.1692 25.0956 27.3863 24.9876C28.0806 24.6181 28.798 23.6406 27.3863 22.8814C26.9305 22.6426 24.4763 21.2956 21.3276 19.5588L16.9629 23.9668L21.3274 28.3102H21.3276Z" fill="#FFD900"/>
<path d="M16.9628 23.9668L3.06445 37.9743C3.39045 38.0176 3.75878 37.931 4.1932 37.6923C5.10486 37.1934 14.7688 31.9156 21.3278 28.3111L16.9628 23.9668Z" fill="#F43249"/>
<path d="M16.9627 23.9667L21.3272 19.5801C21.3272 19.5801 5.17064 10.7629 4.19288 10.2426C3.82503 10.0239 3.41224 9.9592 3.04297 10.0239L16.9627 23.9665V23.9667Z" fill="#00EE76"/>
<path d="M16.9624 23.9711L3.04244 10.0286C2.47747 10.1591 2 10.6582 2 11.6785V36.3279C2 37.2624 2.36951 37.9353 3.06384 38L16.9622 23.9709L16.9624 23.9711Z" fill="#00D3FF"/>
<path d="M64.0245 28.4054C61.8593 28.4054 60.0704 30.0809 60.0704 32.3783C60.0704 34.6568 61.8405 36.3511 64.0247 36.3511C66.2086 36.3511 67.9786 34.6756 67.9786 32.3783C67.9786 30.0809 66.2086 28.4054 64.0245 28.4054ZM64.0245 34.7702C62.838 34.7702 61.803 33.772 61.803 32.3605C61.803 30.9295 62.8388 29.9508 64.0245 29.9508C65.2102 29.9508 66.246 30.9295 66.246 32.3605C66.246 33.772 65.2102 34.7702 64.0245 34.7702ZM55.4196 28.4054C53.2355 28.4054 51.4653 30.0809 51.4653 32.3783C51.4653 34.6568 53.2355 36.3511 55.4196 36.3511C57.6036 36.3511 59.3737 34.6756 59.3737 32.3783C59.3737 30.0809 57.6038 28.4054 55.4196 28.4054ZM55.4196 34.7702C54.2329 34.7702 53.1982 33.772 53.1982 32.3605C53.1982 30.9295 54.234 29.9508 55.4196 29.9508C56.6061 29.9508 57.6411 30.9295 57.6411 32.3605C57.6411 33.772 56.6239 34.7702 55.4196 34.7702ZM45.1954 29.6294V31.305H49.1868C49.0734 32.2463 48.7542 32.943 48.2831 33.4141C47.6997 33.9975 46.7958 34.6381 45.1954 34.6381C42.7283 34.6381 40.8273 32.6424 40.8273 30.1756C40.8273 27.7088 42.7294 25.6753 45.1954 25.6753C46.5317 25.6753 47.4927 26.2027 48.2081 26.8808L49.3938 25.6941C48.3955 24.7342 47.0591 24 45.1954 24C41.8245 24 39 26.7674 39 30.138C39 33.5089 41.8245 36.2763 45.1954 36.2763C47.0216 36.2763 48.3778 35.6741 49.4696 34.5436C50.5805 33.4328 50.9194 31.8696 50.9194 30.6083C50.9194 30.2131 50.8821 29.8552 50.825 29.5538L45.1954 29.6294ZM87.0337 30.9285C86.7133 30.0434 85.6971 28.4054 83.6628 28.4054C81.6288 28.4054 79.9532 30.0061 79.9532 32.3783C79.9532 34.5997 81.6288 36.3511 83.8513 36.3511C85.6587 36.3511 86.6945 35.2403 87.1273 34.5997L85.7909 33.6961C85.3386 34.3554 84.7363 34.788 83.8513 34.788C82.9662 34.788 82.3452 34.3927 81.9492 33.5827L87.2023 31.38L87.0337 30.9285ZM81.6859 32.2659C81.6486 30.7403 82.8726 29.9498 83.7379 29.9498C84.4347 29.9498 84.9996 30.2887 85.2064 30.7974L81.6859 32.2659ZM77.4116 36.0878H79.1442V24.4513H77.4116V36.0878ZM74.5879 29.2905H74.5316C74.1364 28.8194 73.4023 28.4054 72.4601 28.4054C70.4829 28.4054 68.6942 30.1568 68.6942 32.3783C68.6942 34.5997 70.5017 36.3326 72.4601 36.3326C73.4012 36.3326 74.1356 35.9184 74.5316 35.4285H74.5879V35.9934C74.5879 37.5191 73.7777 38.3281 72.4788 38.3281C71.4243 38.3281 70.7649 37.5564 70.5017 36.9158L68.9958 37.5564C69.4284 38.6109 70.5775 39.91 72.4788 39.91C74.5121 39.91 76.2259 38.7047 76.2259 35.7864V28.6499H74.5879V29.2905ZM72.6108 34.7702C71.4243 34.7702 70.4268 33.772 70.4268 32.3793C70.4268 30.9866 71.4251 29.9694 72.6108 29.9694C73.7787 29.9694 74.7199 30.9866 74.7199 32.3793C74.719 33.7532 73.7777 34.7702 72.6108 34.7702ZM95.1113 24.4515H90.969V36.0878H92.7016V31.6814H95.1113C97.0322 31.6814 98.9147 30.2877 98.9147 28.0665C98.9147 25.845 97.0322 24.4515 95.1113 24.4515ZM95.1674 30.0632H92.7194V26.0705H95.1674C96.4477 26.0705 97.2009 27.1439 97.2009 28.0663C97.1829 28.9701 96.4488 30.0632 95.1674 30.0632ZM105.825 28.3866C104.583 28.3866 103.283 28.9328 102.756 30.1756L104.282 30.8161C104.621 30.1756 105.223 29.9686 105.864 29.9686C106.768 29.9686 107.671 30.5145 107.69 31.4744V31.5878C107.37 31.3996 106.711 31.1355 105.883 31.1355C104.226 31.1355 102.549 32.0581 102.549 33.7532C102.549 35.3162 103.905 36.3138 105.412 36.3138C106.579 36.3138 107.219 35.7864 107.614 35.1655H107.671V36.0693H109.346V31.6064C109.327 29.5544 107.802 28.3866 105.825 28.3866ZM105.619 34.7515C105.054 34.7515 104.262 34.4686 104.262 33.7728C104.262 32.8689 105.241 32.53 106.089 32.53C106.841 32.53 107.199 32.6995 107.671 32.9252C107.539 33.9985 106.616 34.7515 105.619 34.7515ZM115.39 28.6509L113.413 33.6782H113.357L111.305 28.6507H109.441L112.529 35.6926L110.778 39.6282H112.585L117.311 28.6507L115.39 28.6509ZM99.8755 36.0878H101.608V24.4513H99.8755V36.0878Z" fill="white"/>
<path fill-rule="evenodd" clip-rule="evenodd" d="M45.4966 13.7069C45.4966 14.6852 45.2289 15.4678 44.6815 16.0547C44.0732 16.746 43.2582 17.0982 42.2728 17.0982C41.3239 17.0982 40.5089 16.746 39.8398 16.0417C39.5182 15.7019 39.265 15.2952 39.0955 14.8466C38.926 14.3979 38.844 13.9169 38.8544 13.433C38.8544 12.3895 39.1829 11.5026 39.8519 10.7982C40.5089 10.0939 41.3118 9.7417 42.2728 9.7417C42.7351 9.7417 43.1852 9.84605 43.611 10.0417C44.0489 10.2373 44.3895 10.4982 44.645 10.8243L44.0611 11.4373C43.8416 11.1618 43.5666 10.9434 43.2567 10.7988C42.9469 10.6542 42.6104 10.5871 42.2728 10.6026C41.5794 10.6026 40.9833 10.8634 40.4724 11.3852C39.9736 11.9069 39.7181 12.5852 39.7181 13.4199C39.7181 14.2547 39.9614 14.933 40.4724 15.4547C40.9833 15.9765 41.5672 16.2373 42.2728 16.2373C43.0027 16.2373 43.611 15.9765 44.0976 15.4547C44.4139 15.1025 44.6085 14.633 44.6572 14.0199H42.2728V13.1721H45.4479C45.4844 13.3547 45.4966 13.5373 45.4966 13.6939" fill="white"/>
<path fill-rule="evenodd" clip-rule="evenodd" d="M45.4963 13.7069H45.3869C45.3869 14.6721 45.1192 15.4025 44.6083 15.9764C44 16.6416 43.2336 16.9808 42.2726 16.9808C41.348 16.9808 40.5695 16.6416 39.9247 15.9634C39.6093 15.6336 39.361 15.2374 39.1956 14.7996C39.0302 14.3618 38.9512 13.8921 38.9637 13.4199C38.9637 12.4025 39.28 11.5677 39.9369 10.8764C40.2412 10.5455 40.6053 10.2845 41.0069 10.1096C41.4085 9.93468 41.8392 9.84942 42.2726 9.85905C42.7227 9.85905 43.1606 9.95035 43.5743 10.146C43.9879 10.3417 44.3042 10.5895 44.5596 10.9025L44.6448 10.8243L44.5596 10.746L43.9879 11.359L44.0609 11.4373L44.146 11.3721C43.6959 10.7851 43.0512 10.4851 42.2726 10.4851C41.5427 10.4851 40.9223 10.759 40.3992 11.3069C39.876 11.8416 39.6084 12.559 39.6084 13.4199C39.6084 14.2808 39.876 14.9851 40.3992 15.5329C40.9223 16.0808 41.5548 16.3547 42.2726 16.3547C43.0268 16.3547 43.6716 16.0808 44.1825 15.5329C44.5231 15.1677 44.7178 14.659 44.7664 14.0329V13.9025H42.3942V13.2895H45.4599V13.1721L45.3504 13.1982C45.3869 13.3677 45.399 13.5373 45.399 13.7069H45.618C45.618 13.5243 45.6058 13.3416 45.5693 13.159L45.5572 13.0547H42.1509V14.1373H44.6448V14.0199H44.5231C44.4866 14.6069 44.3042 15.0503 44.0122 15.3634C43.5378 15.8721 42.966 16.1199 42.2604 16.1199C41.5913 16.1199 41.0196 15.859 40.533 15.3634C40.0464 14.8677 39.8031 14.2286 39.8031 13.4199C39.8031 12.6112 40.0464 11.9851 40.533 11.4634C41.0196 10.9677 41.5913 10.7199 42.2604 10.7199C42.9903 10.7199 43.5499 10.9808 43.9635 11.5156L44.0487 11.6199L44.7056 10.9025L44.7786 10.8373L44.7178 10.746C44.4263 10.3854 44.0595 10.1039 43.6472 9.92427C43.2125 9.72627 42.745 9.62424 42.2726 9.62427C41.2994 9.62427 40.4478 9.98948 39.7787 10.7199C39.444 11.068 39.1795 11.4861 39.0017 11.9483C38.8238 12.4105 38.7363 12.907 38.7447 13.4069C38.7447 14.4764 39.0853 15.3895 39.7787 16.1199C40.1041 16.4724 40.493 16.7503 40.9217 16.9364C41.3505 17.1225 41.8101 17.2131 42.2726 17.2025C43.2823 17.2025 44.1217 16.8373 44.7543 16.1199L44.6813 16.0416L44.7543 16.1329C45.326 15.5199 45.6058 14.6982 45.6058 13.6938H45.4963V13.7069ZM50.5449 10.759H47.5523V13.0025H50.2529V13.8373H47.5523V16.0808H50.5449V16.9416H46.7129V9.89818H50.5449V10.759Z" fill="white"/>
<path fill-rule="evenodd" clip-rule="evenodd" d="M50.545 10.7593V10.6419H47.4429V13.1201H50.1436V13.7201H47.4429V16.1984H50.4355V16.8245H46.8225V10.0158H50.4355V10.7593H50.545V10.6419V10.7723H50.6545V9.78101H46.6035V17.0592H50.6545V15.9636H47.6619V13.9549H50.3625V12.8853H47.6619V10.8767H50.6545V10.7593H50.5329H50.545ZM54.0973 16.9418H53.2579V10.7593H51.4331V9.8984H55.9342V10.7593H54.1094V16.9418" fill="white"/>
<path fill-rule="evenodd" clip-rule="evenodd" d="M54.0964 16.9418V16.8245H53.3665V10.6419H51.5417V10.0158H55.8238V10.6419H53.999V16.9418H54.0964V16.8245V16.9549H54.218V10.8767H56.0428V9.78101H51.3105V10.8767H53.1475V17.0592H54.2058V16.9418H54.0964ZM59.2057 16.9418H60.0573V9.8984H59.2057V16.9418Z" fill="white"/>
<path fill-rule="evenodd" clip-rule="evenodd" d="M59.2071 16.9418H59.3166V10.0288H59.937V16.8245H59.2071V16.9549H59.3166H59.195V17.0592H60.1682V9.78101H59.0977V17.0592H59.2071V16.9418ZM63.7934 16.9418H62.9418V10.7593H61.1171V9.8984H65.6182V10.7593H63.7934V16.9418Z" fill="white"/>
<path fill-rule="evenodd" clip-rule="evenodd" d="M63.7917 16.9418V16.8244H63.0618V10.6418H61.2248V10.0157H65.507V10.6418H63.6822V16.9418H63.7917V16.8244V16.9548H63.9012V10.8766H65.7259V9.78093H61.0059V10.8766H62.8306V17.0592H63.9012V16.9418H63.7795H63.7917ZM69.9716 15.4418C70.4582 15.9635 71.0664 16.2244 71.7599 16.2244C72.4654 16.2244 73.0615 15.9635 73.5481 15.4418C74.0347 14.92 74.278 14.2418 74.278 13.42C74.278 12.5983 74.0347 11.9331 73.5481 11.3983C73.0615 10.8766 72.4654 10.6157 71.7599 10.6157C71.0543 10.6157 70.4582 10.8766 69.9716 11.3983C69.485 11.9201 69.2417 12.5983 69.2417 13.42C69.2417 14.2418 69.485 14.92 69.9716 15.4418ZM74.1686 16.0287C73.5238 16.7461 72.7209 17.0983 71.7599 17.0983C70.7988 17.0983 69.9959 16.7461 69.3512 16.0287C69.0341 15.6861 68.7846 15.2785 68.6174 14.8304C68.4502 14.3822 68.3688 13.9026 68.3779 13.42C68.3682 12.9385 68.4486 12.4598 68.6145 12.0123C68.7804 11.5647 69.0283 11.1573 69.3437 10.8144C69.659 10.4714 70.0353 10.1997 70.4504 10.0155C70.8654 9.83126 71.3107 9.7382 71.7599 9.7418C72.209 9.7382 72.6543 9.83126 73.0693 10.0155C73.4844 10.1997 73.8607 10.4714 74.1761 10.8144C74.4914 11.1573 74.7394 11.5647 74.9052 12.0123C75.0711 12.4598 75.1516 12.9385 75.1418 13.42C75.1418 14.4505 74.8133 15.3244 74.1686 16.0287Z" fill="white"/>
<path fill-rule="evenodd" clip-rule="evenodd" d="M69.973 15.4417L69.9 15.52C70.4109 16.0678 71.0313 16.3548 71.7613 16.3548C72.4912 16.3548 73.1238 16.0678 73.6225 15.52C74.1335 14.9722 74.3889 14.2678 74.3889 13.433C74.3889 12.5722 74.1335 11.8678 73.6225 11.32C73.3827 11.0508 73.0936 10.8377 72.7733 10.694C72.453 10.5504 72.1084 10.4793 71.7613 10.4852C71.0313 10.4852 70.4109 10.7722 69.9 11.32C69.6466 11.5964 69.448 11.925 69.3163 12.2859C69.1846 12.6468 69.1224 13.0326 69.1336 13.42C69.1336 14.2678 69.3891 14.9852 69.9 15.52L70.0581 15.3635C69.8234 15.1081 69.6397 14.804 69.5184 14.4698C69.397 14.1356 69.3406 13.7784 69.3526 13.42C69.3526 12.6374 69.5959 11.9852 70.0581 11.4765C70.2784 11.2319 70.5433 11.0385 70.8363 10.9083C71.1293 10.7782 71.4442 10.7141 71.7613 10.72C72.4425 10.72 73.0021 10.9809 73.4644 11.4765C73.9388 11.9983 74.17 12.6244 74.17 13.433C74.17 14.2156 73.9267 14.8548 73.4644 15.3635C73.0021 15.8722 72.4425 16.12 71.7613 16.12C71.4442 16.1259 71.1293 16.0618 70.8363 15.9317C70.5433 15.8015 70.2784 15.6081 70.0581 15.3635L69.973 15.4417ZM74.17 16.0287L74.097 15.9504C73.4644 16.6417 72.698 16.9809 71.7613 16.9939C71.3275 16.9958 70.8977 16.9044 70.4974 16.7253C70.0971 16.5462 69.7343 16.2829 69.4304 15.951C69.1265 15.6191 68.8877 15.2253 68.7281 14.7929C68.5685 14.3604 68.4912 13.898 68.501 13.433C68.4896 12.967 68.5656 12.5032 68.7245 12.0692C68.8834 11.6352 69.1219 11.2399 69.4259 10.9066C69.73 10.5733 70.0934 10.3088 70.4945 10.1289C70.8957 9.94897 71.3264 9.85724 71.7613 9.85915C72.698 9.85915 73.4644 10.1983 74.0848 10.9026C74.7174 11.5939 75.0337 12.4287 75.0337 13.42C75.0337 14.4243 74.7174 15.2591 74.097 15.9504L74.2551 16.12C74.912 15.3896 75.2527 14.4765 75.2527 13.42C75.2624 12.9231 75.1792 12.4291 75.0078 11.9673C74.8364 11.5055 74.5804 11.0852 74.2549 10.7313C73.9293 10.3774 73.5409 10.0971 73.1126 9.90701C72.6843 9.71688 72.2248 9.62077 71.7613 9.62437C71.2987 9.62251 70.8405 9.71991 70.4136 9.91083C69.9867 10.1017 69.5998 10.3823 69.2756 10.736C68.9514 11.0897 68.6964 11.5094 68.5258 11.9703C68.3552 12.4313 68.2723 12.9242 68.282 13.42C68.282 14.4765 68.6105 15.3765 69.2796 16.12C69.9365 16.8504 70.7759 17.2156 71.7613 17.2156C72.7466 17.2156 73.586 16.8504 74.2551 16.12L74.17 16.0287ZM76.3354 16.9417V9.89828H77.3572L80.5445 15.3765H80.581L80.5445 14.02V9.89828H81.3961V16.9417H80.508L77.1626 11.2026H77.1261L77.1626 12.5591V16.9417H76.3232" fill="white"/>
<path fill-rule="evenodd" clip-rule="evenodd" d="M76.3345 16.9418H76.4319V10.0288H77.2834L80.4829 15.5071H80.6897L80.6532 14.0201V10.0158H81.2736V16.8245H80.568L77.2226 11.0853H77.0158L77.0523 12.5593V16.8245H76.3224V16.9549H76.444H76.3224V17.0592H77.2713V12.5593L77.2348 11.1897H77.1253V11.3201H77.1618V11.1897L77.0766 11.2549L80.4464 17.0592H81.4926V9.78101H80.4342V14.0201L80.4707 15.3766H80.5802V15.2592H80.5437V15.3897L80.641 15.3114L77.4172 9.78101H76.2129V17.0592H76.3345V16.9418Z" fill="white"/>
</svg>
